<svg xmlns="http://www.w3.org/2000/svg" width="24" height="24" fill="none"><g clip-path="url(#a)"><circle cx="12" cy="12" r="10" fill="#fff"/><g filter="url(#b)"><rect width="4.005" height="1.2" x="11.81" y="11.174" fill="url(#c)" rx=".6" transform="rotate(45 11.81 11.174)"/></g><g filter="url(#d)"><path fill="url(#e)" d="m12.546 11.742 5.345-3.605a.6.6 0 1 1 .671.995l-5.345 3.605-.67-.995Z"/></g><rect width="5.9" height="1.2" x="7.4" y="8.002" fill="#181822" rx=".6" transform="rotate(35 7.4 8.002)"/><rect width="8.67" height="1.2" x="18.602" y="7.695" fill="#0EB4B4" rx=".6" transform="rotate(145 18.602 7.695)"/><circle cx="11.85" cy="11.852" r=".85" fill="#F9432B"/><path fill="#FE9A28" d="M21.8 11.55a9.95 9.95 0 0 1-19.18 3.717l1.321-.532a8.527 8.527 0 0 0 16.435-3.185H21.8Z"/><path fill="#FF432B" d="M19.69 5.425a9.95 9.95 0 0 1 2.11 6.156l-1.424-.005a8.526 8.526 0 0 0-1.807-5.274l1.122-.877Z"/><g filter="url(#f)"><path fill="url(#g)" d="M23 12c0 6.075-4.925 11-11 11S1 18.075 1 12 5.925 1 12 1s11 4.925 11 11ZM2.574 12a9.426 9.426 0 1 0 18.852 0 9.426 9.426 0 0 0-18.852 0Z"/></g><rect width=".4" height="1.9" x="11.7" y="17.9" fill="#181822" rx=".2"/><rect width=".4" height="1.9" x="11.7" y="3.1" fill="#181822" rx=".2"/><rect width=".4" height="1.9" x="3.3" y="12" fill="#181822" rx=".2" transform="rotate(-90 3.3 12)"/><rect width=".4" height="1.9" x="18.2" y="12" fill="#181822" rx=".2" transform="rotate(-90 18.2 12)"/><rect width=".4" height="1.9" x="17.627" y="8.748" fill="#181822" rx=".2" transform="rotate(-120 17.627 8.748)"/><rect width=".4" height="1.9" x="15.336" y="5.98" fill="#181822" rx=".2" transform="rotate(-149 15.336 5.98)"/><rect width=".4" height="1.9" x="7.743" y="18.834" fill="#181822" rx=".2" transform="rotate(-149 7.743 18.834)"/><rect width=".4" height="1.9" x="7.402" y="4.277" fill="#181822" rx=".2" transform="rotate(-30 7.402 4.277)"/><rect width=".4" height="1.9" x="15.002" y="17.176" fill="#181822" rx=".2" transform="rotate(-30 15.002 17.176)"/><rect width=".4" height="1.9" x="4.627" y="16.047" fill="#181822" rx=".2" transform="rotate(-120 4.627 16.047)"/><rect width=".4" height="1.9" x="6.273" y="8.402" fill="#181822" rx=".2" transform="rotate(120 6.273 8.402)"/><rect width=".4" height="1.9" x="19.173" y="15.701" fill="#181822" rx=".2" transform="rotate(120 19.173 15.701)"/></g><defs><linearGradient id="c" x1="13.837" x2="16.305" y1="12.296" y2="12.976" gradientUnits="userSpaceOnUse"><stop stop-color="#181822" stop-opacity=".1"/><stop offset=".99" stop-color="#FDFCFA" stop-opacity=".1"/></linearGradient><linearGradient id="e" x1="16.131" x2="20.293" y1="10.679" y2="10.082" gradientUnits="userSpaceOnUse"><stop stop-color="#181822" stop-opacity=".1"/><stop offset=".99" stop-color="#FDFCFA" stop-opacity=".1"/></linearGradient><linearGradient id="g" x1="5.4" x2="1.4" y1="6.35" y2="3.95" gradientUnits="userSpaceOnUse"><stop/><stop offset="1" stop-color="#878787"/></linearGradient><filter id="b" width="3.983" height="3.984" x="10.81" y="11.022" color-interpolation-filters="sRGB" filterUnits="userSpaceOnUse"><feFlood flood-opacity="0" result="BackgroundImageFix"/><feBlend in="SourceGraphic" in2="BackgroundImageFix" result="shape"/><feGaussianBlur result="effect1_foregroundBlur_68_3151" stdDeviation=".2"/></filter><filter id="d" width="7.08" height="5.501" x="12.146" y="7.635" color-interpolation-filters="sRGB" filterUnits="userSpaceOnUse"><feFlood flood-opacity="0" result="BackgroundImageFix"/><feBlend in="SourceGraphic" in2="BackgroundImageFix" result="shape"/><feGaussianBlur result="effect1_foregroundBlur_68_3151" stdDeviation=".2"/></filter><filter id="f" width="22.41" height="22.31" x="1" y="1" color-interpolation-filters="sRGB" filterUnits="userSpaceOnUse"><feFlood flood-opacity="0" result="BackgroundImageFix"/><feColorMatrix in="SourceAlpha" result="hardAlpha" values="0 0 0 0 0 0 0 0 0 0 0 0 0 0 0 0 0 0 127 0"/><feMorphology in="SourceAlpha" radius=".7" result="effect1_dropShadow_68_3151"/><feOffset dx=".5" dy=".4"/><feGaussianBlur stdDeviation=".305"/><feComposite in2="hardAlpha" operator="out"/><feColorMatrix values="0 0 0 0 0 0 0 0 0 0 0 0 0 0 0 0 0 0 0.25 0"/><feBlend in2="BackgroundImageFix" result="effect1_dropShadow_68_3151"/><feBlend in="SourceGraphic" in2="effect1_dropShadow_68_3151" result="shape"/></filter><clipPath id="a"><path fill="#fff" d="M0 0h24v24H0z"/></clipPath></defs></svg>